<?xml version="1.0" encoding="utf-8"?>
<!-- Generator: Adobe Illustrator 16.0.0, SVG Export Plug-In . SVG Version: 6.00 Build 0)  -->
<!DOCTYPE svg PUBLIC "-//W3C//DTD SVG 1.1//EN" "http://www.w3.org/Graphics/SVG/1.1/DTD/svg11.dtd">
<svg version="1.1" xmlns="http://www.w3.org/2000/svg" xmlns:xlink="http://www.w3.org/1999/xlink" x="0px" y="0px" width="100px"
	 height="50px" viewBox="0 0 100 50" enable-background="new 0 0 100 50" xml:space="preserve">
<g id="Shape_1_1_" enable-background="new    ">
	<g id="Shape_1">
		<g>
			<path fill="#B1A981" d="M100,15c-0.143-3-1.715-5-5-5s-80,0-80,0s-3-1.286-3-3S9.429,5,5,5S1,6.429,1,9s0,24.857,0,28
				s-0.286,2.571,3,4s7-1,9-1s72.285-1,74-1s3,1.143,3,2s-0.285,5,2,5s8-0.857,8-3S100.143,18,100,15z"/>
		</g>
	</g>
</g>
<g id="Shape_12_1_" enable-background="new    ">
	<g id="Shape_12">
		<g>
			<path fill="#726357" d="M9.753,10.54l-3.842,0.769L2.3,8.6L1.7,9.4l3.271,2.453l0.127,0.637l0.57-0.114L5.7,12.4l0.027-0.036
				l3.031-0.606l0.595,0.595l3-3l-0.707-0.707L9.753,10.54z M5.865,7.572l1.781,1.781l0.707-0.707l-2-2L6,7L5.842,6.525l-3,1
				l0.316,0.949L5.865,7.572z M93.354,12.354l-0.707-0.707l-2,2L91,14l0.354,0.354L93.354,12.354z M96.354,13.646l-2-2l-0.707,0.707
				l2,2L96.354,13.646z M99.354,14.354l-0.707-0.707l-1.916,1.916l-2.657,0.886l-2.796-1.864L91,15v-1h-1v27h1V15.601l2.723,1.815
				L94,17l0.158,0.475l3-1L97,16l0.354,0.354L99.354,14.354z"/>
		</g>
	</g>
</g>
</svg>
