<?xml version="1.0" encoding="utf-8"?>
<!-- Generator: Adobe Illustrator 16.0.0, SVG Export Plug-In . SVG Version: 6.00 Build 0)  -->
<!DOCTYPE svg PUBLIC "-//W3C//DTD SVG 1.1//EN" "http://www.w3.org/Graphics/SVG/1.1/DTD/svg11.dtd">
<svg version="1.1" id="Shape_1_1_" xmlns="http://www.w3.org/2000/svg" xmlns:xlink="http://www.w3.org/1999/xlink" x="0px" y="0px"
	 width="50px" height="50px" viewBox="0 0 50 50" enable-background="new 0 0 50 50" xml:space="preserve">
<g id="Shape_1">
	<g>
		<path fill="#6B4E27" d="M32.727,9.991c-1.749,0-26.81-0.48-28.186,0c-1.377,0.48-3.888,10.368-3.888,13.824
			c0,3.456,2.834,14.176,3.888,14.976s26.437,0,28.186,0c1.751,0,16.523-12.902,16.523-14.976
			C49.25,21.742,34.478,9.991,32.727,9.991z"/>
	</g>
	<g>
		<path fill="none" stroke="#A07547" stroke-miterlimit="10" d="M32.727,9.991c-1.749,0-26.81-0.48-28.186,0
			c-1.377,0.48-3.888,10.368-3.888,13.824c0,3.456,2.834,14.176,3.888,14.976s26.437,0,28.186,0
			c1.751,0,16.523-12.902,16.523-14.976C49.25,21.742,34.478,9.991,32.727,9.991z"/>
	</g>
</g>
<g>
	<path fill="#6B4E27" d="M26.458,32.22c2.75,2.061-22.917,2.061-20.167,0c-2.75,2.061-2.75-17.166,0-15.106
		c-2.75-2.06,22.917-2.06,20.167,0C29.208,15.054,29.208,34.28,26.458,32.22z"/>
	<path fill="none" stroke="#A07547" stroke-miterlimit="10" d="M26.458,32.22c2.75,2.061-22.917,2.061-20.167,0
		c-2.75,2.061-2.75-17.166,0-15.106c-2.75-2.06,22.917-2.06,20.167,0C29.208,15.054,29.208,34.28,26.458,32.22z"/>
</g>
<path fill="none" stroke="#6D5138" stroke-miterlimit="10" d="M43.083,19.25c0,2.041-0.205,4.164,0.248,6.167
	c0.154,0.679,0.392,1.299,0.336,2"/>
<path fill="none" stroke="#6D5138" stroke-miterlimit="10" d="M38.667,16.917c1.097,4.564,0.249,9.517,0.25,14.167"/>
<path fill="none" stroke="#6D5138" stroke-miterlimit="10" d="M33,12.917c-0.131,6.031,1.784,12.466,0.519,18.46
	C33.181,32.979,33,34.614,33,36.25"/>
<path fill="none" stroke="#6D5138" stroke-miterlimit="10" d="M28.167,11.25c0.321,0.917,0.274,2.313,0.333,3.333"/>
<path fill="none" stroke="#6D5138" stroke-miterlimit="10" d="M22.583,11.5c0,1.139,0,2.278,0,3.417"/>
<path fill="none" stroke="#6D5138" stroke-miterlimit="10" d="M17.333,11.417c0,0.831,0.18,1.94-0.083,2.75"/>
<path fill="none" stroke="#6D5138" stroke-miterlimit="10" d="M12.333,11c0.035,1.167-0.207,2.345-0.167,3.5"/>
<path fill="none" stroke="#6D5138" stroke-miterlimit="10" d="M6.833,11.167c0.237,0.871,0.326,2.639,0,3.5"/>
<path fill="none" stroke="#6D5138" stroke-miterlimit="10" d="M30.333,22.583c-0.099,1.847,0.029,3.999,0.283,5.827
	c0.207,1.494,0.143,2.902,0.217,4.405c0.067,1.368,0,2.72,0,4.102"/>
<path fill="none" stroke="#6D5138" stroke-miterlimit="10" d="M27.167,34.417c0,0.998,0.289,2.433-0.084,3.333"/>
<path fill="none" stroke="#6D5138" stroke-miterlimit="10" d="M22.333,35.167c0.239,0.653,0.265,2.404,0,3"/>
<path fill="none" stroke="#6D5138" stroke-miterlimit="10" d="M19,35.334c-0.084,0.904-0.272,1.843-0.25,2.75"/>
<path fill="none" stroke="#6D5138" stroke-miterlimit="10" d="M13.167,35.084c0,0.777,0,1.556,0,2.333"/>
<path fill="none" stroke="#6D5138" stroke-miterlimit="10" d="M7.5,34.667c0.542,0.402,0.167,2.675,0.167,3.5"/>
<path fill="none" stroke="#6D5138" stroke-miterlimit="10" d="M38.25,26.334c-1.076,0-2.696,0.289-3.75-0.084"/>
<path fill="none" stroke="#6D5138" stroke-miterlimit="10" d="M32.083,16c-0.84-0.205-1.774-0.359-2.666-0.333"/>
<path fill="none" stroke="#6D5138" stroke-miterlimit="10" d="M42.583,21.917c-0.811,0.059-1.618-0.072-2.416-0.167"/>
<path fill="none" stroke="#6D5138" stroke-miterlimit="10" d="M21.417,13c-1.196,0-2.389-0.109-3.583-0.083"/>
</svg>
